<svg xmlns="http://www.w3.org/2000/svg" width="100" height="100"><defs><linearGradient id="a"><stop stop-color="#86c"/><stop offset="1" stop-color="#bae"/></linearGradient><path id="b" fill="none" stroke="#fff" stroke-width="1" d="M0 0h2v8m4-2c0 2.7 5 2.7 5 0V2C11-.7 6-.7 6 2z"/></defs><path fill="url(#a)" d="M0 0h100v100H0z"/><use x="5" y="31" href="#b"/><use x="19" y="31" href="#b"/><use x="5" y="46" href="#b"/><use x="19" y="46" href="#b"/><use x="5" y="61" href="#b"/><use x="19" y="61" href="#b"/><path fill="#fff" d="M39 46.5v1l-.2.9h.2q.3-.6 1-1 .6-.4 1.6-.4 1.5 0 2.5 1.2t1 3.6q0 2.4-1 3.6-1 1.2-2.6 1.2-1 0-1.6-.3-.6-.4-1-.9h-.1l-.4 1h-2V43.6H39zm1.8 2.5q-1 0-1.4.6-.4.7-.4 2v.2q0 1.3.3 2 .4.8 1.5.8.8 0 1.2-.7.5-.8.5-2.1 0-1.4-.5-2-.4-.8-1.2-.8zM51 47q1.8 0 2.8.8 1 .8 1 2.5v6.1H53l-.5-1.2q-.6.7-1.3 1-.7.4-1.8.4-1.2 0-2-.7-.9-.7-.9-2.2t1-2.2q1.1-.7 3.2-.8h1.6v-.4q0-.8-.4-1-.4-.4-1-.4-.8 0-1.4.2l-1.3.4-.8-1.7q.7-.4 1.6-.6l2-.2zm.3 5.2q-1.2 0-1.7.4t-.5 1q0 .7.4 1 .3.2.9.2.8 0 1.3-.5.6-.5.6-1.4v-.7zm11.4-4.7h.9l-.2 2.5H63l-.4-.1-1.2.2q-.6.2-1 .8-.3.5-.3 1.3V57h-2.5v-9.2h1.9l.4 1.6q.5-.8 1.2-1.2.7-.6 1.6-.7zm6.4 0q1.9 0 3 1.1t1.1 3.1V53h-5.9q0 1.1.6 1.7.6.6 1.7.6l1.6-.1 1.5-.6v2l-1.4.4q-.8.2-1.8.2-1.4 0-2.5-.5-1-.5-1.6-1.6-.7-1-.7-2.6t.6-2.7 1.5-1.6q1-.6 1.9-.7zm0 1.8q-.8 0-1.2.5-.5.5-.6 1.5h3.5q0-.9-.4-1.4-.4-.6-1.3-.6zm5.4 4.1v-2h4.4v2zm10.1 1.7h.8l.8-.3v1.9l-1 .3-1.3.1q-.8 0-1.5-.3-.6-.2-1-.9t-.5-1.9v-4.4h-1v-1l1.4-1 .7-1.9h1.6v2h2.6v1.9h-2.6V54q0 .5.3.7t.7.4zm10-1q0 1.5-1 2.3-1 .7-3 .7l-1.7-.1-1.4-.4v-2.1l1.6.6 1.5.2q.8 0 1.1-.2.3-.3.3-.6l-.1-.5-.5-.4-1.5-.6-1.4-.7q-.6-.4-.8-1-.3-.4-.3-1.2 0-1.3 1-2 1-.6 2.7-.6l1.6.2q.8.1 1.6.5l-.7 1.8-1.3-.4-1.2-.2q-1.2 0-1.2.6l.2.4.5.4 1.2.5 1.4.7q.6.3 1 .9l.4 1.2z"/></svg>